<svg xmlns="http://www.w3.org/2000/svg" viewBox="0 0 302.2 61.16" width="272px" height="56px"><title>KLub Młodego Odkrywcy</title><g id="logo-svg" data-name="logo-svg"><g id="Warstwa_1-2" data-name="Warstwa 1"><polygon points="184.56 38.54 178.38 38.54 178.38 25.95 176.54 25.95 176.54 40.18 184.56 40.18 184.56 38.54"/><rect x="164.28" y="25.95" width="1.84" height="14.23"/><polygon points="174.28 40.18 168.64 32.94 173.85 25.95 171.69 25.95 166.56 32.94 172.08 40.18 174.28 40.18"/><path d="M196.37,36.19V26h-1.84V36.08c0,1.75-1,2.67-3.2,2.67s-3.2-.92-3.2-2.67V26h-1.84V36.19c0,2.33,1.35,4.21,5,4.21s5-1.89,5-4.21"/><path d="M208.91,37.13V35.42a2.37,2.37,0,0,0-2.1-2.56,2.24,2.24,0,0,0,1.63-2.38V28.83c0-1.88-1.11-2.88-3.35-2.88H199.6V40.18h5.79c2.14,0,3.53-1.07,3.53-3.06m-7.48-9.6H205c1.11,0,1.62.43,1.62,1.35v1.6c0,1-.53,1.66-1.93,1.66h-3.24Zm0,11.07V33.73H205c1.41,0,2.05.62,2.05,1.75V37c0,1.07-.64,1.63-1.94,1.63Z"/><polygon points="217.63 28.64 221.26 38.34 223.74 38.34 227.38 28.64 227.65 40.18 229.43 40.18 228.94 25.95 226.61 25.95 222.5 36.96 218.4 25.95 216.07 25.95 215.58 40.18 217.35 40.18 217.63 28.64"/><polygon points="233.27 34.28 233.27 40.18 241.28 40.18 241.28 38.54 235.11 38.54 235.11 33.39 238.78 31.57 238.19 30.36 235.11 31.87 235.11 25.95 233.27 25.95 233.27 32.77 231.37 33.71 231.97 34.93 233.27 34.28"/><path d="M248.48,25.74c-3.67,0-5.15,1.94-5.15,4.31v6c0,2.37,1.48,4.32,5.15,4.32s5.15-1.95,5.15-4.32v-6c0-2.37-1.48-4.31-5.15-4.31M251.79,36c0,1.75-1.07,2.73-3.31,2.73s-3.31-1-3.31-2.73V30.1c0-1.75,1.07-2.74,3.31-2.74s3.31,1,3.31,2.74Z"/><path d="M261.62,26h-5V40.18h5c3.48,0,4.57-1.81,4.57-4.08V30c0-2.27-1.09-4.08-4.57-4.08m2.74,10c0,1.67-.64,2.57-2.8,2.57h-3.08V27.6h3.08c2.16,0,2.8.89,2.8,2.56Z"/><polygon points="270.94 33.71 277.01 33.71 277.01 32.06 270.94 32.06 270.94 27.6 277.48 27.6 277.48 25.95 269.1 25.95 269.1 40.18 277.5 40.18 277.5 38.54 270.94 38.54 270.94 33.71"/><path d="M287.33,38.47a13.9,13.9,0,0,1-2.67.26c-2.44,0-3-.81-3-2.63V30c0-1.92.7-2.63,3.05-2.63a22.85,22.85,0,0,1,3.82.36l.21-1.58a18.82,18.82,0,0,0-4-.44c-3.54,0-5,1.32-5,4.21v6.26c0,2.63,1.1,4.19,4.74,4.19a16.88,16.88,0,0,0,4.51-.62V33.64h-1.77Z"/><path d="M297,25.74c-3.67,0-5.15,1.94-5.15,4.31v6c0,2.37,1.48,4.32,5.15,4.32s5.15-1.95,5.15-4.32v-6c0-2.37-1.47-4.31-5.15-4.31M300.37,36c0,1.75-1.07,2.73-3.32,2.73s-3.31-1-3.31-2.73V30.1c0-1.75,1.07-2.74,3.31-2.74s3.32,1,3.32,2.74Z"/><path d="M169.43,44.32c-3.68,0-5.15,1.94-5.15,4.32v6c0,2.37,1.48,4.32,5.15,4.32s5.15-1.95,5.15-4.32v-6c0-2.37-1.47-4.32-5.15-4.32m3.31,10.3c0,1.76-1.07,2.73-3.31,2.73s-3.32-1-3.32-2.73V48.68c0-1.75,1.07-2.74,3.32-2.74s3.31,1,3.31,2.74Z"/><path d="M182.57,44.53h-5V58.76h5c3.49,0,4.57-1.82,4.57-4.08V48.61c0-2.27-1.09-4.08-4.57-4.08m2.74,10c0,1.67-.64,2.56-2.8,2.56h-3.08V46.17h3.08c2.16,0,2.8.9,2.8,2.57Z"/><polygon points="199.62 44.53 197.46 44.53 192.33 51.52 197.84 58.76 200.05 58.76 194.41 51.52 199.62 44.53"/><rect x="190.04" y="44.53" width="1.84" height="14.23"/><path d="M211.86,50.09V48c0-2.18-1.07-3.51-4.13-3.51h-5.42V58.77h1.84V53.61h3.48l3.55,5.15h2.12l-3.7-5.36a3,3,0,0,0,2.27-3.31M204.15,52V46.18h3.52c1.75,0,2.35.47,2.35,1.88v2.05c0,1.39-.6,1.88-2.35,1.88Z"/><polygon points="218.7 52.48 214.98 44.53 213.06 44.53 217.78 54.47 217.78 58.77 219.62 58.77 219.62 54.47 224.34 44.53 222.41 44.53 218.7 52.48"/><polygon points="238.4 57.01 235.45 44.53 232.89 44.53 229.94 57.01 226.69 44.53 224.89 44.53 228.64 58.77 231.22 58.77 234.17 46.05 237.11 58.77 239.7 58.77 243.44 44.53 241.65 44.53 238.4 57.01"/><path d="M249.89,46a21.76,21.76,0,0,1,3.33.3l.19-1.58a18.2,18.2,0,0,0-3.59-.38c-3.48,0-4.87,1.49-4.87,4.19v6.28c0,2.7,1.39,4.19,4.87,4.19a18.1,18.1,0,0,0,3.59-.38L253.23,57a22.16,22.16,0,0,1-3.33.3c-2.33,0-3.1-.64-3.1-2.63V48.61c0-2,.77-2.63,3.1-2.63"/><polygon points="260.04 52.48 256.32 44.53 254.4 44.53 259.13 54.47 259.13 58.77 260.96 58.77 260.96 54.47 265.68 44.53 263.76 44.53 260.04 52.48"/><path d="M105.31,23.56a18.8,18.8,0,1,0,18.8,18.8,18.8,18.8,0,0,0-18.8-18.8m0,32.9a14.1,14.1,0,1,1,14.1-14.1,14.1,14.1,0,0,1-14.1,14.1"/><polygon points="110.01 0 105.31 0 105.31 18.86 110.01 14.16 110.01 0"/><rect x="128.82" y="37.65" width="18.86" height="4.7"/><polygon points="133.56 10.79 120.23 24.12 126.88 24.12 136.88 14.11 133.56 10.79"/><path d="M105.31,35.21a7,7,0,1,0,7,7,7,7,0,0,0-7-7m0,9.3a2.33,2.33,0,1,1,2.33-2.33,2.33,2.33,0,0,1-2.33,2.33"/><path d="M18.8,23.56a18.8,18.8,0,1,0,18.8,18.8,18.8,18.8,0,0,0-18.8-18.8m0,32.9A14.1,14.1,0,1,1,27,30.86L15.48,42.36,27,53.85a14,14,0,0,1-8.16,2.61m11.49-5.93-8.17-8.17,8.17-8.17a14.09,14.09,0,0,1,0,16.34"/><path d="M61.84,23.56a18.8,18.8,0,1,0,18.81,18.8,18.8,18.8,0,0,0-18.81-18.8m0,4.7A14.06,14.06,0,0,1,70,30.87L61.84,39l-8.17-8.17a14,14,0,0,1,8.17-2.61m0,28.2A14.1,14.1,0,0,1,50.35,34.2L61.84,45.69,73.34,34.2A14.1,14.1,0,0,1,61.85,56.46"/></g></g></svg>
