<?xml version="1.0" encoding="UTF-8" standalone="no"?>
<svg
   width="98"
   height="50"
   version="1.1"
   id="svg4"
   sodipodi:docname="logo-cnk.svg"
   inkscape:version="1.2.1 (9c6d41e410, 2022-07-14)"
   xmlns:inkscape="http://www.inkscape.org/namespaces/inkscape"
   xmlns:sodipodi="http://sodipodi.sourceforge.net/DTD/sodipodi-0.dtd"
   xmlns="http://www.w3.org/2000/svg"
   xmlns:svg="http://www.w3.org/2000/svg">
  <defs
     id="defs8" />
  <sodipodi:namedview
     id="namedview6"
     pagecolor="#505050"
     bordercolor="#eeeeee"
     borderopacity="1"
     inkscape:showpageshadow="0"
     inkscape:pageopacity="0"
     inkscape:pagecheckerboard="0"
     inkscape:deskcolor="#505050"
     showgrid="false"
     inkscape:zoom="11.265306"
     inkscape:cx="49.044384"
     inkscape:cy="25.032609"
     inkscape:window-width="1920"
     inkscape:window-height="1009"
     inkscape:window-x="-8"
     inkscape:window-y="-8"
     inkscape:window-maximized="1"
     inkscape:current-layer="svg4" />
  <path
     fill="#FFF"
     fill-rule="evenodd"
     d="M19.877 35.746c4.074 0 7.053 3.017 7.053 6.88 0 3.958-2.98 7.05-7.053 7.05s-7.053-3.092-7.053-7.05c0-3.863 2.98-6.88 7.053-6.88zm29.703.226V38.8h-5.15v2.45h4.112v2.828H44.43v2.545h5.413v2.828H41.13V35.972h8.45zm-45.355 0v5.202h1.358l2.79-5.202h3.546l-3.64 6.446 3.847 7.032H8.43l-2.847-5.467H4.225v5.467h-3.3V35.972h3.3zM82.94 39.77v9.68h-3.3v-8.376c1.05-.29 2.058-.68 3.015-1.158l.286-.146zm6.468-3.796v5.202h1.358l2.791-5.202h3.546l-3.64 6.446 3.847 7.03h-3.696l-2.848-5.466h-1.358v5.466h-3.3V37.62c.509-.437.991-.903 1.445-1.397l.224-.25h1.631zm-60.234 0h5.6c2.622 0 4.395 1.922 4.395 4.637 0 2.67-1.716 4.61-4.268 4.672l-.126.002h-2.3v4.166h-3.301V35.973h5.6-5.6zm23.045 0h4.695l.306.002c1.173.013 1.776.109 2.316.318 1.527.584 2.49 1.96 2.49 3.92 0 1.433-.68 2.997-2.018 3.676l.12.19c.053.085.122.198.204.339l.185.32 2.621 4.711h-3.677l-2.395-4.543H55.52v4.543h-3.3V35.973zM65.081 49.45V38.37a16.786 16.786 0 006.24 2.884l.266.06.566.955c.528.886 1.132 2.3 1.132 2.3l-.052-.746c-.024-.397-.05-.889-.059-1.301l-.003-.253v-.696a15.97 15.97 0 002.967.082l.334-.024v7.819h-3.32L69.4 43.172l-.093-.16c-.503-.886-1.038-2.14-1.038-2.14l.057.833c.028.468.057 1.043.057 1.467v6.277h-3.301v-11.08 11.08zM19.877 38.763c-2.018 0-3.64 1.658-3.64 3.863 0 2.3 1.622 4.034 3.64 4.034s3.64-1.734 3.64-4.034c0-2.205-1.622-3.863-3.64-3.863zm14.276.037h-1.678v3.657h1.622c1.15 0 1.716-.773 1.716-1.847 0-1.042-.532-1.766-1.562-1.808l-.098-.002zm22.48 0H55.52v3.28h1.433c1.057 0 1.716-.585 1.716-1.659l-.003-.14c-.034-.91-.43-1.455-1.92-1.48l-.113-.002zM30.928 18.1v8.519c0 1.414.924 2.168 2.339 2.168 1.379 0 2.292-.717 2.337-2.063l.002-.105v-8.52h3.3v8.52c0 3.034-2.226 5.183-5.62 5.183-3.383 0-5.593-2.087-5.656-5.052l-.002-.131v-8.52h3.3zm-9.052 0l4.583 13.476h-3.395l-.83-2.827H18.03l-.811 2.827h-3.395L18.406 18.1h3.47zm-20.952 0h3.338l3.734 6.295c.528.886 1.132 2.3 1.132 2.3l-.051-.746a33.963 33.963 0 01-.06-1.302l-.002-.252v-6.296h3.3v13.477h-3.32L5.244 25.3l-.094-.161c-.503-.887-1.038-2.14-1.038-2.14l.057.833c.025.41.05.902.055 1.302l.001.166v6.276h-3.3V18.1zm44.261 0v5.2h1.358l2.791-5.202h3.546l-3.64 6.446 3.847 7.031h-3.696l-2.848-5.466h-1.358v5.466h-3.3V18.1h3.3zm13.05 0v13.476h-3.3V18.1h3.3zM20.14 21.171l-.221.972c-.099.417-.216.892-.322 1.267l-.796 2.7h2.66l-.8-2.781a50.309 50.309 0 01-.52-2.158zM7.072 0c2.87 0 4.54 1.407 4.953 1.802l.101.102L10.6 4.392l-.105-.09c-.373-.305-1.694-1.286-3.27-1.286-2.585 0-3.81 1.903-3.81 3.845 0 1.998 1.32 4.052 3.81 4.052 1.776 0 3.18-1.262 3.509-1.584l.073-.074 1.698 2.412-.08.088c-.395.417-2.244 2.174-5.352 2.174C2.848 13.929 0 10.932 0 6.937 0 3.016 3.018 0 7.072 0zm18.52.226h3.337l3.734 6.296c.528.885 1.132 2.3 1.132 2.3l-.046-.662a31.054 31.054 0 01-.067-1.557V.226h3.3v13.477h-3.319L29.91 7.427c-.31-.522-.647-1.225-.872-1.717l-.26-.583h-.037l.061.661c.04.466.084 1.088.09 1.557v6.358h-3.3V.226zm26.194 0h4.696l.305.002c1.173.014 1.777.11 2.316.319 1.527.584 2.49 1.96 2.49 3.92 0 1.432-.68 2.997-2.018 3.676l.148.235c.077.125.182.3.311.526l.05.087 2.534 4.554-.07.079-.067.08h-3.453L56.633 9.16h-1.547v4.543h-3.3V.226zm-28.835 0v2.828h-5.148v2.45h4.11v2.827h-4.11v2.545h5.412v2.827h-8.713V.226h8.449zm56.35 0h3.584l2.018 5.86c.295.864.66 2.057.66 2.057l.178-.625c.114-.39.267-.902.414-1.344l.086-.255L88.202.226h3.583l1.095 13.477h-3.301l-.415-6.07c-.075-1.017-.038-2.261-.038-2.261L88.791 6.4c-.126.383-.269.808-.391 1.155l-1.442 3.98H85.47a16.91 16.91 0 00-1.473-1.026l-.309-.186-.974-2.69-.176-.506c-.276-.809-.579-1.755-.579-1.755l.007.381c.005.426.005 1.14-.038 1.785l-.125 1.824c-.91-.392-1.86-.707-2.845-.935l-.329-.073.67-8.128zm-29.175 0v2.828h-4.092v10.65h-3.3V3.053h-4.092V.226h11.484zm17.52 0v8.52c0 .343.056.647.16.911a16.847 16.847 0 00-2.797 1.704 5.184 5.184 0 01-.66-2.433l-.003-.182V.226h3.3zm7.978 0V8c-.165-.005-.329-.012-.495-.012-.836 0-1.658.064-2.462.182l-.344.054V.226h3.3zM56.199 3.053h-1.113v3.28h1.433c1.057 0 1.716-.584 1.716-1.658l-.002-.14c-.035-.91-.431-1.455-1.92-1.48l-.114-.002z"
     id="path2"
     style="fill:#000000;fill-opacity:1" />
</svg>
